<svg xmlns="http://www.w3.org/2000/svg" xmlns:xlink="http://www.w3.org/1999/xlink" width="40" zoomAndPan="magnify" viewBox="0 0 30 30.000001" height="40" preserveAspectRatio="xMidYMid meet" version="1.0"><defs><clipPath id="a53bf33885"><path d="M 0.484375 0 L 29.515625 0 L 29.515625 29.03125 L 0.484375 29.03125 Z M 0.484375 0 " clip-rule="nonzero"/></clipPath><clipPath id="7af0ba979d"><path d="M 5.789062 5.304688 L 23.933594 5.304688 L 23.933594 23.449219 L 5.789062 23.449219 Z M 5.789062 5.304688 " clip-rule="nonzero"/></clipPath></defs><g clip-path="url(#a53bf33885)"><path fill="#ffffff" d="M 0.484375 0 L 29.515625 0 L 29.515625 29.03125 L 0.484375 29.03125 Z M 0.484375 0 " fill-opacity="1" fill-rule="nonzero"/><path fill="#ffffff" d="M 0.484375 0 L 29.515625 0 L 29.515625 29.03125 L 0.484375 29.03125 Z M 0.484375 0 " fill-opacity="1" fill-rule="nonzero"/><path fill="#dafaf8" d="M 29.515625 14.515625 C 29.515625 15.46875 29.421875 16.414062 29.238281 17.347656 C 29.050781 18.28125 28.777344 19.191406 28.410156 20.070312 C 28.046875 20.953125 27.597656 21.789062 27.070312 22.582031 C 26.539062 23.375 25.9375 24.105469 25.265625 24.78125 C 24.589844 25.453125 23.855469 26.054688 23.066406 26.585938 C 22.273438 27.117188 21.4375 27.5625 20.554688 27.925781 C 19.675781 28.292969 18.765625 28.566406 17.832031 28.753906 C 16.898438 28.9375 15.953125 29.03125 15 29.03125 C 14.046875 29.03125 13.101562 28.9375 12.167969 28.753906 C 11.234375 28.566406 10.324219 28.292969 9.445312 27.925781 C 8.5625 27.5625 7.726562 27.117188 6.933594 26.585938 C 6.144531 26.054688 5.410156 25.453125 4.734375 24.78125 C 4.0625 24.105469 3.460938 23.375 2.929688 22.582031 C 2.402344 21.789062 1.953125 20.953125 1.589844 20.070312 C 1.222656 19.191406 0.949219 18.28125 0.761719 17.347656 C 0.578125 16.414062 0.484375 15.46875 0.484375 14.515625 C 0.484375 13.5625 0.578125 12.617188 0.761719 11.683594 C 0.949219 10.75 1.222656 9.839844 1.589844 8.960938 C 1.953125 8.082031 2.402344 7.242188 2.929688 6.453125 C 3.460938 5.660156 4.0625 4.925781 4.734375 4.25 C 5.410156 3.578125 6.144531 2.976562 6.933594 2.445312 C 7.726562 1.917969 8.5625 1.46875 9.445312 1.105469 C 10.324219 0.738281 11.234375 0.464844 12.167969 0.277344 C 13.101562 0.09375 14.046875 0 15 0 C 15.953125 0 16.898438 0.09375 17.832031 0.277344 C 18.765625 0.464844 19.675781 0.738281 20.554688 1.105469 C 21.4375 1.46875 22.273438 1.917969 23.066406 2.445312 C 23.855469 2.976562 24.589844 3.578125 25.265625 4.25 C 25.9375 4.925781 26.539062 5.660156 27.070312 6.453125 C 27.597656 7.242188 28.046875 8.082031 28.410156 8.960938 C 28.777344 9.839844 29.050781 10.75 29.238281 11.683594 C 29.421875 12.617188 29.515625 13.5625 29.515625 14.515625 Z M 29.515625 14.515625 " fill-opacity="1" fill-rule="nonzero"/></g><g clip-path="url(#7af0ba979d)"><path fill="#089790" d="M 16.75 23.382812 C 16.664062 23.382812 16.582031 23.355469 16.511719 23.300781 C 16.425781 23.226562 16.371094 23.121094 16.371094 23.003906 L 16.371094 20.191406 C 16.371094 19.511719 16.285156 19.03125 16.097656 18.675781 C 16.042969 18.574219 16.039062 18.449219 16.089844 18.34375 C 16.136719 18.234375 16.230469 18.15625 16.347656 18.132812 C 18.585938 17.613281 20.152344 15.972656 20.152344 14.144531 C 20.152344 13.234375 19.78125 12.371094 19.074219 11.640625 C 18.964844 11.527344 18.9375 11.359375 19.003906 11.21875 C 19.285156 10.609375 19.226562 9.785156 18.890625 9.289062 C 18.453125 9.460938 17.878906 9.824219 17.507812 10.265625 C 17.40625 10.386719 17.238281 10.429688 17.089844 10.375 C 15.671875 9.855469 14.050781 9.855469 12.632812 10.375 C 12.484375 10.429688 12.316406 10.386719 12.214844 10.265625 C 11.84375 9.824219 11.269531 9.464844 10.828125 9.292969 C 10.496094 9.785156 10.433594 10.613281 10.714844 11.21875 C 10.78125 11.359375 10.753906 11.527344 10.644531 11.640625 C 9.941406 12.371094 9.566406 13.238281 9.566406 14.144531 C 9.566406 15.886719 10.976562 17.457031 13.074219 18.050781 C 13.234375 18.097656 13.347656 18.246094 13.347656 18.417969 L 13.347656 18.679688 C 13.347656 19.152344 13.160156 19.421875 13 19.5625 C 12.65625 19.863281 12.214844 19.816406 12.167969 19.8125 C 12.164062 19.8125 12.160156 19.8125 12.160156 19.8125 C 11.535156 19.8125 11.066406 19.464844 10.613281 19.128906 C 10.386719 18.960938 10.15625 18.789062 9.886719 18.644531 C 9.945312 18.726562 10.003906 18.804688 10.0625 18.886719 C 10.628906 19.675781 11.269531 20.570312 12.214844 20.570312 L 12.972656 20.570312 C 13.179688 20.570312 13.347656 20.738281 13.347656 20.949219 L 13.347656 23.003906 C 13.347656 23.121094 13.296875 23.226562 13.207031 23.300781 C 13.117188 23.371094 13 23.398438 12.890625 23.375 C 8.773438 22.460938 5.789062 18.738281 5.789062 14.519531 C 5.789062 9.519531 9.855469 5.449219 14.859375 5.449219 C 19.863281 5.449219 23.933594 9.519531 23.933594 14.519531 C 23.933594 18.738281 20.945312 22.460938 16.832031 23.375 C 16.804688 23.378906 16.777344 23.382812 16.75 23.382812 Z M 16.945312 18.753906 C 17.070312 19.144531 17.128906 19.613281 17.128906 20.191406 L 17.128906 22.519531 C 20.660156 21.515625 23.175781 18.226562 23.175781 14.519531 C 23.175781 9.9375 19.445312 6.203125 14.859375 6.203125 C 10.273438 6.203125 6.542969 9.9375 6.542969 14.519531 C 6.542969 18.226562 9.058594 21.515625 12.59375 22.519531 L 12.59375 21.324219 L 12.214844 21.324219 C 10.882812 21.324219 10.085938 20.21875 9.449219 19.328125 C 9.085938 18.824219 8.710938 18.300781 8.433594 18.300781 C 8.226562 18.300781 8.054688 18.132812 8.054688 17.921875 C 8.054688 17.714844 8.226562 17.546875 8.433594 17.546875 C 9.75 17.546875 10.480469 18.085938 11.066406 18.519531 C 11.46875 18.820312 11.789062 19.058594 12.214844 19.058594 C 12.257812 19.058594 12.414062 19.070312 12.5 18.992188 C 12.574219 18.925781 12.589844 18.796875 12.59375 18.695312 C 10.320312 17.949219 8.8125 16.148438 8.8125 14.144531 C 8.8125 13.113281 9.199219 12.132812 9.933594 11.296875 C 9.609375 10.355469 9.808594 9.210938 10.433594 8.585938 C 10.527344 8.488281 10.667969 8.449219 10.796875 8.484375 C 11.304688 8.621094 12.054688 9.011719 12.613281 9.582031 C 14.054688 9.113281 15.664062 9.113281 17.105469 9.582031 C 17.664062 9.011719 18.414062 8.621094 18.921875 8.484375 C 19.050781 8.449219 19.1875 8.488281 19.285156 8.585938 C 19.910156 9.210938 20.109375 10.355469 19.785156 11.296875 C 20.519531 12.132812 20.910156 13.113281 20.910156 14.144531 C 20.910156 16.207031 19.300781 18.050781 16.945312 18.753906 Z M 16.945312 18.753906 " fill-opacity="1" fill-rule="nonzero"/></g></svg>