<svg xmlns="http://www.w3.org/2000/svg" xmlns:xlink="http://www.w3.org/1999/xlink" width="40" zoomAndPan="magnify" viewBox="0 0 30 30.000001" height="40" preserveAspectRatio="xMidYMid meet" version="1.0"><defs><clipPath id="80cf97d39d"><path d="M 0.484375 0 L 29.515625 0 L 29.515625 29.03125 L 0.484375 29.03125 Z M 0.484375 0 " clip-rule="nonzero"/></clipPath><clipPath id="183e8e303d"><path d="M 5.84375 7.808594 L 23.988281 7.808594 L 23.988281 20.875 L 5.84375 20.875 Z M 5.84375 7.808594 " clip-rule="nonzero"/></clipPath></defs><g clip-path="url(#80cf97d39d)"><path fill="#ffffff" d="M 0.484375 0 L 29.515625 0 L 29.515625 29.03125 L 0.484375 29.03125 Z M 0.484375 0 " fill-opacity="1" fill-rule="nonzero"/><path fill="#ffffff" d="M 0.484375 0 L 29.515625 0 L 29.515625 29.03125 L 0.484375 29.03125 Z M 0.484375 0 " fill-opacity="1" fill-rule="nonzero"/><path fill="#dafaf8" d="M 29.515625 14.515625 C 29.515625 15.46875 29.421875 16.414062 29.238281 17.347656 C 29.050781 18.28125 28.777344 19.191406 28.410156 20.070312 C 28.046875 20.953125 27.597656 21.789062 27.070312 22.582031 C 26.539062 23.375 25.9375 24.105469 25.265625 24.78125 C 24.589844 25.453125 23.855469 26.054688 23.066406 26.585938 C 22.273438 27.117188 21.4375 27.5625 20.554688 27.925781 C 19.675781 28.292969 18.765625 28.566406 17.832031 28.753906 C 16.898438 28.9375 15.953125 29.03125 15 29.03125 C 14.046875 29.03125 13.101562 28.9375 12.167969 28.753906 C 11.234375 28.566406 10.324219 28.292969 9.445312 27.925781 C 8.5625 27.5625 7.726562 27.117188 6.933594 26.585938 C 6.144531 26.054688 5.410156 25.453125 4.734375 24.78125 C 4.0625 24.105469 3.460938 23.375 2.929688 22.582031 C 2.402344 21.789062 1.953125 20.953125 1.589844 20.070312 C 1.222656 19.191406 0.949219 18.28125 0.761719 17.347656 C 0.578125 16.414062 0.484375 15.46875 0.484375 14.515625 C 0.484375 13.5625 0.578125 12.617188 0.761719 11.683594 C 0.949219 10.75 1.222656 9.839844 1.589844 8.960938 C 1.953125 8.082031 2.402344 7.242188 2.929688 6.453125 C 3.460938 5.660156 4.0625 4.925781 4.734375 4.25 C 5.410156 3.578125 6.144531 2.976562 6.933594 2.445312 C 7.726562 1.917969 8.5625 1.46875 9.445312 1.105469 C 10.324219 0.738281 11.234375 0.464844 12.167969 0.277344 C 13.101562 0.09375 14.046875 0 15 0 C 15.953125 0 16.898438 0.09375 17.832031 0.277344 C 18.765625 0.464844 19.675781 0.738281 20.554688 1.105469 C 21.4375 1.46875 22.273438 1.917969 23.066406 2.445312 C 23.855469 2.976562 24.589844 3.578125 25.265625 4.25 C 25.9375 4.925781 26.539062 5.660156 27.070312 6.453125 C 27.597656 7.242188 28.046875 8.082031 28.410156 8.960938 C 28.777344 9.839844 29.050781 10.75 29.238281 11.683594 C 29.421875 12.617188 29.515625 13.5625 29.515625 14.515625 Z M 29.515625 14.515625 " fill-opacity="1" fill-rule="nonzero"/></g><g clip-path="url(#183e8e303d)"><path fill="#089790" d="M 7.367188 7.808594 C 6.535156 7.808594 5.855469 8.476562 5.855469 9.292969 L 5.855469 19.390625 C 5.855469 20.207031 6.535156 20.875 7.367188 20.875 L 22.464844 20.875 C 23.300781 20.875 23.976562 20.207031 23.976562 19.390625 L 23.976562 9.292969 C 23.976562 8.476562 23.300781 7.808594 22.464844 7.808594 Z M 7.925781 8.402344 L 21.910156 8.402344 L 15.09375 13.257812 C 14.988281 13.332031 14.84375 13.332031 14.738281 13.257812 Z M 7.003906 8.480469 L 14.382812 13.734375 C 14.542969 13.851562 14.730469 13.90625 14.917969 13.90625 C 15.101562 13.90625 15.289062 13.851562 15.449219 13.734375 L 22.828125 8.480469 C 23.148438 8.617188 23.371094 8.929688 23.371094 9.292969 L 23.371094 19.390625 C 23.371094 19.878906 22.964844 20.28125 22.464844 20.28125 L 21.5625 20.28125 L 21.5625 11.90625 C 21.5625 11.792969 21.496094 11.691406 21.394531 11.640625 C 21.296875 11.589844 21.171875 11.597656 21.082031 11.664062 L 15.09375 15.929688 C 14.988281 16.003906 14.84375 16.003906 14.738281 15.929688 L 8.753906 11.664062 C 8.660156 11.597656 8.539062 11.589844 8.4375 11.640625 C 8.335938 11.691406 8.273438 11.792969 8.273438 11.90625 L 8.273438 20.28125 L 7.367188 20.28125 C 6.867188 20.28125 6.460938 19.878906 6.460938 19.390625 L 6.460938 9.292969 C 6.460938 8.929688 6.683594 8.617188 7.003906 8.480469 Z M 20.957031 12.484375 L 20.957031 18.5 C 20.789062 18.5 20.65625 18.628906 20.65625 18.796875 L 20.65625 19.390625 C 20.65625 19.554688 20.789062 19.6875 20.957031 19.6875 L 20.957031 20.28125 L 8.875 20.28125 L 8.875 19.6875 C 9.042969 19.6875 9.179688 19.554688 9.179688 19.390625 L 9.179688 18.796875 C 9.179688 18.628906 9.042969 18.5 8.875 18.5 L 8.875 12.488281 L 14.382812 16.410156 C 14.703125 16.636719 15.128906 16.636719 15.449219 16.410156 Z M 10.386719 18.5 C 10.21875 18.5 10.085938 18.628906 10.085938 18.796875 L 10.085938 19.390625 C 10.085938 19.554688 10.21875 19.6875 10.386719 19.6875 C 10.550781 19.6875 10.6875 19.554688 10.6875 19.390625 L 10.6875 18.796875 C 10.6875 18.628906 10.550781 18.5 10.386719 18.5 Z M 11.894531 18.5 C 11.730469 18.5 11.59375 18.628906 11.59375 18.796875 L 11.59375 19.390625 C 11.59375 19.554688 11.730469 19.6875 11.894531 19.6875 C 12.0625 19.6875 12.199219 19.554688 12.199219 19.390625 L 12.199219 18.796875 C 12.199219 18.628906 12.0625 18.5 11.894531 18.5 Z M 13.40625 18.5 C 13.238281 18.5 13.105469 18.628906 13.105469 18.796875 L 13.105469 19.390625 C 13.105469 19.554688 13.238281 19.6875 13.40625 19.6875 C 13.574219 19.6875 13.707031 19.554688 13.707031 19.390625 L 13.707031 18.796875 C 13.707031 18.628906 13.574219 18.5 13.40625 18.5 Z M 14.917969 18.5 C 14.75 18.5 14.613281 18.628906 14.613281 18.796875 L 14.613281 19.390625 C 14.613281 19.554688 14.75 19.6875 14.917969 19.6875 C 15.082031 19.6875 15.21875 19.554688 15.21875 19.390625 L 15.21875 18.796875 C 15.21875 18.628906 15.082031 18.5 14.917969 18.5 Z M 16.425781 18.5 C 16.261719 18.5 16.125 18.628906 16.125 18.796875 L 16.125 19.390625 C 16.125 19.554688 16.261719 19.6875 16.425781 19.6875 C 16.59375 19.6875 16.726562 19.554688 16.726562 19.390625 L 16.726562 18.796875 C 16.726562 18.628906 16.59375 18.5 16.425781 18.5 Z M 17.9375 18.5 C 17.769531 18.5 17.632812 18.628906 17.632812 18.796875 L 17.632812 19.390625 C 17.632812 19.554688 17.769531 19.6875 17.9375 19.6875 C 18.101562 19.6875 18.238281 19.554688 18.238281 19.390625 L 18.238281 18.796875 C 18.238281 18.628906 18.101562 18.5 17.9375 18.5 Z M 19.445312 18.5 C 19.28125 18.5 19.144531 18.628906 19.144531 18.796875 L 19.144531 19.390625 C 19.144531 19.554688 19.28125 19.6875 19.445312 19.6875 C 19.613281 19.6875 19.75 19.554688 19.75 19.390625 L 19.75 18.796875 C 19.75 18.628906 19.613281 18.5 19.445312 18.5 Z M 19.445312 18.5 " fill-opacity="1" fill-rule="nonzero"/></g></svg>