<svg xmlns="http://www.w3.org/2000/svg" xmlns:xlink="http://www.w3.org/1999/xlink" width="40" zoomAndPan="magnify" viewBox="0 0 30 30.000001" height="40" preserveAspectRatio="xMidYMid meet" version="1.0"><defs><clipPath id="1ecc8e7800"><path d="M 0.484375 0 L 29.515625 0 L 29.515625 29.03125 L 0.484375 29.03125 Z M 0.484375 0 " clip-rule="nonzero"/></clipPath><clipPath id="fab421fdb6"><path d="M 5.945312 4.699219 L 25.542969 4.699219 L 25.542969 24.296875 L 5.945312 24.296875 Z M 5.945312 4.699219 " clip-rule="nonzero"/></clipPath><clipPath id="26a34d356b"><path d="M 22.476562 7.839844 L 27.554688 7.839844 L 27.554688 12.917969 L 22.476562 12.917969 Z M 22.476562 7.839844 " clip-rule="nonzero"/></clipPath><clipPath id="4bc3d55a12"><path d="M 22.476562 10.453125 L 27.554688 10.453125 L 27.554688 15.53125 L 22.476562 15.53125 Z M 22.476562 10.453125 " clip-rule="nonzero"/></clipPath><clipPath id="ae17262677"><path d="M 23.238281 13.066406 L 28.320312 13.066406 L 28.320312 18.144531 L 23.238281 18.144531 Z M 23.238281 13.066406 " clip-rule="nonzero"/></clipPath><clipPath id="4ed1f84884"><path d="M 23.238281 17.890625 L 27.59375 17.890625 L 27.59375 22.246094 L 23.238281 22.246094 Z M 23.238281 17.890625 " clip-rule="nonzero"/></clipPath><clipPath id="a510ab2b5e"><path d="M 22.386719 21.03125 L 26.015625 21.03125 L 26.015625 24.660156 L 22.386719 24.660156 Z M 22.386719 21.03125 " clip-rule="nonzero"/></clipPath><clipPath id="2e0d1872a8"><path d="M 20.707031 22.894531 L 23.609375 22.894531 L 23.609375 25.796875 L 20.707031 25.796875 Z M 20.707031 22.894531 " clip-rule="nonzero"/></clipPath><clipPath id="84b84f6a5f"><path d="M 17.832031 22.5 L 21.460938 22.5 L 21.460938 26.128906 L 17.832031 26.128906 Z M 17.832031 22.5 " clip-rule="nonzero"/></clipPath><clipPath id="1da5df3b29"><path d="M 15 22.5 L 18.628906 22.5 L 18.628906 26.128906 L 15 26.128906 Z M 15 22.5 " clip-rule="nonzero"/></clipPath><clipPath id="af2043181a"><path d="M 11.371094 22.789062 L 15 22.789062 L 15 26.417969 L 11.371094 26.417969 Z M 11.371094 22.789062 " clip-rule="nonzero"/></clipPath><clipPath id="38e39c7cf2"><path d="M 6.144531 21.992188 L 11.226562 21.992188 L 11.226562 27.074219 L 6.144531 27.074219 Z M 6.144531 21.992188 " clip-rule="nonzero"/></clipPath><clipPath id="6c786972d3"><path d="M 4.332031 21.703125 L 7.960938 21.703125 L 7.960938 25.332031 L 4.332031 25.332031 Z M 4.332031 21.703125 " clip-rule="nonzero"/></clipPath><clipPath id="bd4e98e242"><path d="M 3.96875 18.582031 L 7.597656 18.582031 L 7.597656 22.210938 L 3.96875 22.210938 Z M 3.96875 18.582031 " clip-rule="nonzero"/></clipPath><clipPath id="5d162aae21"><path d="M 3.96875 15.675781 L 7.597656 15.675781 L 7.597656 19.304688 L 3.96875 19.304688 Z M 3.96875 15.675781 " clip-rule="nonzero"/></clipPath><clipPath id="c2c49cb1d5"><path d="M 3.96875 13.789062 L 7.597656 13.789062 L 7.597656 17.417969 L 3.96875 17.417969 Z M 3.96875 13.789062 " clip-rule="nonzero"/></clipPath><clipPath id="7796872b0f"><path d="M 3.96875 10.996094 L 7.597656 10.996094 L 7.597656 14.625 L 3.96875 14.625 Z M 3.96875 10.996094 " clip-rule="nonzero"/></clipPath><clipPath id="2927293156"><path d="M 3.96875 8.203125 L 7.597656 8.203125 L 7.597656 11.832031 L 3.96875 11.832031 Z M 3.96875 8.203125 " clip-rule="nonzero"/></clipPath><clipPath id="ffb8c1e064"><path d="M 3.96875 6.132812 L 7.597656 6.132812 L 7.597656 9.761719 L 3.96875 9.761719 Z M 3.96875 6.132812 " clip-rule="nonzero"/></clipPath><clipPath id="016ef54a92"><path d="M 4.910156 3.703125 L 8.539062 3.703125 L 8.539062 7.332031 L 4.910156 7.332031 Z M 4.910156 3.703125 " clip-rule="nonzero"/></clipPath><clipPath id="97341b5562"><path d="M 7.742188 2.902344 L 11.371094 2.902344 L 11.371094 6.53125 L 7.742188 6.53125 Z M 7.742188 2.902344 " clip-rule="nonzero"/></clipPath><clipPath id="2d44722cb5"><path d="M 10.101562 2.902344 L 13.730469 2.902344 L 13.730469 6.53125 L 10.101562 6.53125 Z M 10.101562 2.902344 " clip-rule="nonzero"/></clipPath><clipPath id="147310e461"><path d="M 12.785156 2.902344 L 16.414062 2.902344 L 16.414062 6.53125 L 12.785156 6.53125 Z M 12.785156 2.902344 " clip-rule="nonzero"/></clipPath><clipPath id="0b631dc21a"><path d="M 16.125 2.902344 L 19.753906 2.902344 L 19.753906 6.53125 L 16.125 6.53125 Z M 16.125 2.902344 " clip-rule="nonzero"/></clipPath><clipPath id="743d6de58c"><path d="M 19.464844 2.902344 L 23.09375 2.902344 L 23.09375 6.53125 L 19.464844 6.53125 Z M 19.464844 2.902344 " clip-rule="nonzero"/></clipPath><clipPath id="182b2f4adc"><path d="M 22.441406 3.703125 L 26.070312 3.703125 L 26.070312 7.332031 L 22.441406 7.332031 Z M 22.441406 3.703125 " clip-rule="nonzero"/></clipPath><clipPath id="eba6c38287"><path d="M 22.875 5.40625 L 26.503906 5.40625 L 26.503906 9.035156 L 22.875 9.035156 Z M 22.875 5.40625 " clip-rule="nonzero"/></clipPath><clipPath id="55303f30a6"><path d="M 13.601562 2.777344 L 20.136719 2.777344 L 20.136719 9.308594 L 13.601562 9.308594 Z M 13.601562 2.777344 " clip-rule="nonzero"/></clipPath><clipPath id="e968df9f5d"><path d="M 16.816406 4.609375 L 23.347656 4.609375 L 23.347656 11.140625 L 16.816406 11.140625 Z M 16.816406 4.609375 " clip-rule="nonzero"/></clipPath><clipPath id="c23aa6663a"><path d="M 12.378906 3.683594 L 18.910156 3.683594 L 18.910156 10.214844 L 12.378906 10.214844 Z M 12.378906 3.683594 " clip-rule="nonzero"/></clipPath><clipPath id="df304efdb0"><path d="M 9.800781 21.703125 L 16.332031 21.703125 L 16.332031 28.234375 L 9.800781 28.234375 Z M 9.800781 21.703125 " clip-rule="nonzero"/></clipPath></defs><g clip-path="url(#1ecc8e7800)"><path fill="#ffffff" d="M 0.484375 0 L 29.515625 0 L 29.515625 101.613281 L 0.484375 101.613281 Z M 0.484375 0 " fill-opacity="1" fill-rule="nonzero"/><path fill="#ffffff" d="M 0.484375 0 L 29.515625 0 L 29.515625 29.03125 L 0.484375 29.03125 Z M 0.484375 0 " fill-opacity="1" fill-rule="nonzero"/><path fill="#ffffff" d="M 0.484375 0 L 29.515625 0 L 29.515625 29.03125 L 0.484375 29.03125 Z M 0.484375 0 " fill-opacity="1" fill-rule="nonzero"/><path fill="#dafaf8" d="M 29.515625 14.515625 C 29.515625 15.46875 29.421875 16.414062 29.238281 17.347656 C 29.050781 18.28125 28.777344 19.191406 28.410156 20.070312 C 28.046875 20.953125 27.597656 21.789062 27.070312 22.582031 C 26.539062 23.375 25.9375 24.105469 25.265625 24.78125 C 24.589844 25.453125 23.855469 26.054688 23.066406 26.585938 C 22.273438 27.117188 21.4375 27.5625 20.554688 27.925781 C 19.675781 28.292969 18.765625 28.566406 17.832031 28.753906 C 16.898438 28.9375 15.953125 29.03125 15 29.03125 C 14.046875 29.03125 13.101562 28.9375 12.167969 28.753906 C 11.234375 28.566406 10.324219 28.292969 9.445312 27.925781 C 8.5625 27.5625 7.726562 27.117188 6.933594 26.585938 C 6.144531 26.054688 5.410156 25.453125 4.734375 24.78125 C 4.0625 24.105469 3.460938 23.375 2.929688 22.582031 C 2.402344 21.789062 1.953125 20.953125 1.589844 20.070312 C 1.222656 19.191406 0.949219 18.28125 0.761719 17.347656 C 0.578125 16.414062 0.484375 15.46875 0.484375 14.515625 C 0.484375 13.5625 0.578125 12.617188 0.761719 11.683594 C 0.949219 10.75 1.222656 9.839844 1.589844 8.960938 C 1.953125 8.082031 2.402344 7.242188 2.929688 6.453125 C 3.460938 5.660156 4.0625 4.925781 4.734375 4.25 C 5.410156 3.578125 6.144531 2.976562 6.933594 2.445312 C 7.726562 1.917969 8.5625 1.46875 9.445312 1.105469 C 10.324219 0.738281 11.234375 0.464844 12.167969 0.277344 C 13.101562 0.09375 14.046875 0 15 0 C 15.953125 0 16.898438 0.09375 17.832031 0.277344 C 18.765625 0.464844 19.675781 0.738281 20.554688 1.105469 C 21.4375 1.46875 22.273438 1.917969 23.066406 2.445312 C 23.855469 2.976562 24.589844 3.578125 25.265625 4.25 C 25.9375 4.925781 26.539062 5.660156 27.070312 6.453125 C 27.597656 7.242188 28.046875 8.082031 28.410156 8.960938 C 28.777344 9.839844 29.050781 10.75 29.238281 11.683594 C 29.421875 12.617188 29.515625 13.5625 29.515625 14.515625 Z M 29.515625 14.515625 " fill-opacity="1" fill-rule="nonzero"/></g><g clip-path="url(#fab421fdb6)"><path fill="#089790" d="M 7.578125 4.699219 C 6.679688 4.699219 5.945312 5.433594 5.945312 6.332031 L 5.945312 22.664062 C 5.945312 23.5625 6.679688 24.296875 7.578125 24.296875 L 23.910156 24.296875 C 24.808594 24.296875 25.542969 23.5625 25.542969 22.664062 L 25.542969 6.332031 C 25.542969 5.433594 24.808594 4.699219 23.910156 4.699219 Z M 7.578125 5.351562 L 23.910156 5.351562 C 24.453125 5.351562 24.890625 5.789062 24.890625 6.332031 L 24.890625 22.664062 C 24.890625 23.207031 24.453125 23.644531 23.910156 23.644531 L 7.578125 23.644531 C 7.035156 23.644531 6.597656 23.207031 6.597656 22.664062 L 6.597656 6.332031 C 6.597656 5.789062 7.035156 5.351562 7.578125 5.351562 Z M 10.484375 7.308594 C 9.40625 7.308594 8.527344 8.1875 8.527344 9.261719 C 8.527344 10.339844 9.40625 11.21875 10.484375 11.21875 C 11.5625 11.21875 12.441406 10.339844 12.441406 9.261719 C 12.441406 8.1875 11.5625 7.308594 10.484375 7.308594 Z M 14.4375 7.3125 C 14.257812 7.3125 14.109375 7.460938 14.109375 7.640625 C 14.109375 7.820312 14.257812 7.964844 14.4375 7.964844 C 14.617188 7.964844 14.765625 7.820312 14.765625 7.640625 C 14.765625 7.460938 14.617188 7.3125 14.4375 7.3125 Z M 15.742188 7.3125 C 15.5625 7.3125 15.417969 7.460938 15.417969 7.640625 C 15.417969 7.820312 15.5625 7.964844 15.742188 7.964844 C 15.925781 7.964844 16.070312 7.820312 16.070312 7.640625 C 16.070312 7.460938 15.925781 7.3125 15.742188 7.3125 Z M 17.050781 7.3125 C 16.871094 7.3125 16.722656 7.460938 16.722656 7.640625 C 16.722656 7.820312 16.871094 7.964844 17.050781 7.964844 C 17.230469 7.964844 17.378906 7.820312 17.378906 7.640625 C 17.378906 7.460938 17.230469 7.3125 17.050781 7.3125 Z M 18.355469 7.3125 C 18.175781 7.3125 18.03125 7.460938 18.03125 7.640625 C 18.03125 7.820312 18.175781 7.964844 18.355469 7.964844 C 18.535156 7.964844 18.683594 7.820312 18.683594 7.640625 C 18.683594 7.460938 18.535156 7.3125 18.355469 7.3125 Z M 19.664062 7.3125 C 19.484375 7.3125 19.335938 7.460938 19.335938 7.640625 C 19.335938 7.820312 19.484375 7.964844 19.664062 7.964844 C 19.84375 7.964844 19.988281 7.820312 19.988281 7.640625 C 19.988281 7.460938 19.84375 7.3125 19.664062 7.3125 Z M 20.96875 7.3125 C 20.789062 7.3125 20.644531 7.460938 20.644531 7.640625 C 20.644531 7.820312 20.789062 7.964844 20.96875 7.964844 C 21.148438 7.964844 21.296875 7.820312 21.296875 7.640625 C 21.296875 7.460938 21.148438 7.3125 20.96875 7.3125 Z M 22.277344 7.3125 C 22.097656 7.3125 21.949219 7.460938 21.949219 7.640625 C 21.949219 7.820312 22.097656 7.964844 22.277344 7.964844 C 22.457031 7.964844 22.601562 7.820312 22.601562 7.640625 C 22.601562 7.460938 22.457031 7.3125 22.277344 7.3125 Z M 10.484375 7.960938 C 11.207031 7.960938 11.789062 8.542969 11.789062 9.261719 C 11.789062 9.988281 11.207031 10.566406 10.484375 10.566406 C 9.761719 10.566406 9.179688 9.988281 9.179688 9.261719 C 9.179688 8.542969 9.761719 7.960938 10.484375 7.960938 Z M 19.042969 11.578125 C 18.011719 11.578125 17.214844 11.980469 16.671875 12.496094 L 16.671875 11.800781 L 13.328125 11.800781 L 13.328125 21.496094 L 16.785156 21.496094 L 16.785156 16.699219 C 16.785156 16.128906 16.851562 15.59375 17.039062 15.253906 C 17.230469 14.90625 17.5 14.703125 18.144531 14.703125 C 18.765625 14.703125 18.960938 14.917969 19.113281 15.300781 C 19.261719 15.679688 19.277344 16.25 19.277344 16.773438 L 19.277344 21.496094 L 22.414062 21.496094 L 22.414062 20.839844 L 22.742188 21.167969 L 22.742188 16.210938 C 22.742188 14.96875 22.617188 13.835938 22.070312 12.972656 C 21.527344 12.105469 20.539062 11.578125 19.042969 11.578125 Z M 8.753906 11.800781 L 8.753906 21.496094 L 12.21875 21.496094 L 12.21875 11.800781 Z M 19.042969 12.230469 C 20.394531 12.230469 21.089844 12.640625 21.519531 13.320312 C 21.949219 13.996094 22.085938 15.015625 22.085938 16.210938 L 22.085938 20.839844 L 19.933594 20.839844 L 19.933594 16.773438 C 19.933594 16.246094 19.9375 15.613281 19.71875 15.058594 C 19.5 14.503906 18.96875 14.050781 18.144531 14.050781 C 17.328125 14.050781 16.753906 14.414062 16.46875 14.9375 C 16.179688 15.457031 16.132812 16.085938 16.132812 16.699219 L 16.132812 20.839844 L 13.980469 20.839844 L 13.980469 12.457031 L 16.019531 12.457031 L 16.019531 13.691406 L 16.582031 13.691406 L 16.675781 13.515625 C 16.992188 12.914062 17.796875 12.230469 19.042969 12.230469 Z M 9.40625 12.457031 L 11.5625 12.457031 L 11.5625 20.839844 L 9.40625 20.839844 Z M 9.40625 12.457031 " fill-opacity="1" fill-rule="nonzero"/></g><g clip-path="url(#26a34d356b)"><path fill="#dafaf8" d="M 27.554688 10.378906 C 27.554688 10.714844 27.492188 11.039062 27.363281 11.351562 C 27.234375 11.664062 27.050781 11.9375 26.8125 12.175781 C 26.574219 12.414062 26.300781 12.597656 25.988281 12.726562 C 25.675781 12.855469 25.351562 12.917969 25.015625 12.917969 C 24.679688 12.917969 24.355469 12.855469 24.042969 12.726562 C 23.734375 12.597656 23.457031 12.414062 23.21875 12.175781 C 22.980469 11.9375 22.796875 11.664062 22.667969 11.351562 C 22.539062 11.039062 22.476562 10.714844 22.476562 10.378906 C 22.476562 10.042969 22.539062 9.71875 22.667969 9.40625 C 22.796875 9.09375 22.980469 8.820312 23.21875 8.582031 C 23.457031 8.34375 23.734375 8.160156 24.042969 8.03125 C 24.355469 7.902344 24.679688 7.839844 25.015625 7.839844 C 25.351562 7.839844 25.675781 7.902344 25.988281 8.03125 C 26.300781 8.160156 26.574219 8.34375 26.8125 8.582031 C 27.050781 8.820312 27.234375 9.09375 27.363281 9.40625 C 27.492188 9.71875 27.554688 10.042969 27.554688 10.378906 Z M 27.554688 10.378906 " fill-opacity="1" fill-rule="nonzero"/></g><g clip-path="url(#4bc3d55a12)"><path fill="#dafaf8" d="M 27.554688 12.992188 C 27.554688 13.328125 27.492188 13.652344 27.363281 13.964844 C 27.234375 14.273438 27.050781 14.550781 26.8125 14.789062 C 26.574219 15.027344 26.300781 15.210938 25.988281 15.339844 C 25.675781 15.46875 25.351562 15.53125 25.015625 15.53125 C 24.679688 15.53125 24.355469 15.46875 24.042969 15.339844 C 23.734375 15.210938 23.457031 15.027344 23.21875 14.789062 C 22.980469 14.550781 22.796875 14.273438 22.667969 13.964844 C 22.539062 13.652344 22.476562 13.328125 22.476562 12.992188 C 22.476562 12.65625 22.539062 12.332031 22.667969 12.019531 C 22.796875 11.707031 22.980469 11.433594 23.21875 11.195312 C 23.457031 10.957031 23.734375 10.773438 24.042969 10.644531 C 24.355469 10.515625 24.679688 10.453125 25.015625 10.453125 C 25.351562 10.453125 25.675781 10.515625 25.988281 10.644531 C 26.300781 10.773438 26.574219 10.957031 26.8125 11.195312 C 27.050781 11.433594 27.234375 11.707031 27.363281 12.019531 C 27.492188 12.332031 27.554688 12.65625 27.554688 12.992188 Z M 27.554688 12.992188 " fill-opacity="1" fill-rule="nonzero"/></g><g clip-path="url(#ae17262677)"><path fill="#dafaf8" d="M 28.320312 15.605469 C 28.320312 15.941406 28.253906 16.265625 28.125 16.578125 C 27.996094 16.886719 27.8125 17.164062 27.574219 17.402344 C 27.335938 17.640625 27.0625 17.824219 26.75 17.953125 C 26.4375 18.082031 26.113281 18.144531 25.777344 18.144531 C 25.441406 18.144531 25.117188 18.082031 24.804688 17.953125 C 24.496094 17.824219 24.21875 17.640625 23.980469 17.402344 C 23.742188 17.164062 23.558594 16.886719 23.429688 16.578125 C 23.300781 16.265625 23.238281 15.941406 23.238281 15.605469 C 23.238281 15.269531 23.300781 14.945312 23.429688 14.632812 C 23.558594 14.320312 23.742188 14.046875 23.980469 13.808594 C 24.21875 13.570312 24.496094 13.386719 24.804688 13.257812 C 25.117188 13.128906 25.441406 13.066406 25.777344 13.066406 C 26.113281 13.066406 26.4375 13.128906 26.75 13.257812 C 27.0625 13.386719 27.335938 13.570312 27.574219 13.808594 C 27.8125 14.046875 27.996094 14.320312 28.125 14.632812 C 28.253906 14.945312 28.320312 15.269531 28.320312 15.605469 Z M 28.320312 15.605469 " fill-opacity="1" fill-rule="nonzero"/></g><g clip-path="url(#4ed1f84884)"><path fill="#dafaf8" d="M 27.59375 20.070312 C 27.59375 20.355469 27.539062 20.636719 27.425781 20.902344 C 27.316406 21.167969 27.160156 21.402344 26.953125 21.609375 C 26.75 21.8125 26.515625 21.96875 26.25 22.082031 C 25.980469 22.191406 25.703125 22.246094 25.414062 22.246094 C 25.125 22.246094 24.847656 22.191406 24.582031 22.082031 C 24.316406 21.96875 24.078125 21.8125 23.875 21.609375 C 23.671875 21.402344 23.515625 21.167969 23.402344 20.902344 C 23.292969 20.636719 23.238281 20.355469 23.238281 20.070312 C 23.238281 19.78125 23.292969 19.503906 23.402344 19.234375 C 23.515625 18.96875 23.671875 18.734375 23.875 18.527344 C 24.078125 18.324219 24.316406 18.167969 24.582031 18.058594 C 24.847656 17.945312 25.125 17.890625 25.414062 17.890625 C 25.703125 17.890625 25.980469 17.945312 26.25 18.058594 C 26.515625 18.167969 26.75 18.324219 26.953125 18.527344 C 27.160156 18.734375 27.316406 18.96875 27.425781 19.234375 C 27.539062 19.503906 27.59375 19.78125 27.59375 20.070312 Z M 27.59375 20.070312 " fill-opacity="1" fill-rule="nonzero"/></g><g clip-path="url(#a510ab2b5e)"><path fill="#dafaf8" d="M 26.015625 22.84375 C 26.015625 23.085938 25.96875 23.316406 25.875 23.539062 C 25.785156 23.761719 25.652344 23.957031 25.484375 24.128906 C 25.3125 24.296875 25.117188 24.429688 24.894531 24.519531 C 24.671875 24.613281 24.441406 24.660156 24.199219 24.660156 C 23.957031 24.660156 23.726562 24.613281 23.503906 24.519531 C 23.28125 24.429688 23.085938 24.296875 22.917969 24.128906 C 22.746094 23.957031 22.617188 23.761719 22.523438 23.539062 C 22.429688 23.316406 22.386719 23.085938 22.386719 22.84375 C 22.386719 22.605469 22.429688 22.371094 22.523438 22.148438 C 22.617188 21.929688 22.746094 21.730469 22.917969 21.5625 C 23.085938 21.390625 23.28125 21.261719 23.503906 21.167969 C 23.726562 21.078125 23.957031 21.03125 24.199219 21.03125 C 24.441406 21.03125 24.671875 21.078125 24.894531 21.167969 C 25.117188 21.261719 25.3125 21.390625 25.484375 21.5625 C 25.652344 21.730469 25.785156 21.929688 25.875 22.148438 C 25.96875 22.371094 26.015625 22.605469 26.015625 22.84375 Z M 26.015625 22.84375 " fill-opacity="1" fill-rule="nonzero"/></g><g clip-path="url(#2e0d1872a8)"><path fill="#dafaf8" d="M 23.609375 24.347656 C 23.609375 24.539062 23.574219 24.722656 23.5 24.902344 C 23.425781 25.078125 23.320312 25.238281 23.183594 25.371094 C 23.046875 25.507812 22.890625 25.613281 22.714844 25.6875 C 22.535156 25.761719 22.351562 25.796875 22.160156 25.796875 C 21.964844 25.796875 21.78125 25.761719 21.601562 25.6875 C 21.425781 25.613281 21.269531 25.507812 21.132812 25.371094 C 20.996094 25.238281 20.890625 25.078125 20.816406 24.902344 C 20.742188 24.722656 20.707031 24.539062 20.707031 24.347656 C 20.707031 24.152344 20.742188 23.96875 20.816406 23.789062 C 20.890625 23.613281 20.996094 23.457031 21.132812 23.320312 C 21.269531 23.183594 21.425781 23.078125 21.601562 23.003906 C 21.78125 22.929688 21.964844 22.894531 22.160156 22.894531 C 22.351562 22.894531 22.535156 22.929688 22.714844 23.003906 C 22.890625 23.078125 23.046875 23.183594 23.183594 23.320312 C 23.320312 23.457031 23.425781 23.613281 23.5 23.789062 C 23.574219 23.96875 23.609375 24.152344 23.609375 24.347656 Z M 23.609375 24.347656 " fill-opacity="1" fill-rule="nonzero"/></g><g clip-path="url(#84b84f6a5f)"><path fill="#dafaf8" d="M 21.460938 24.316406 C 21.460938 24.554688 21.414062 24.785156 21.320312 25.007812 C 21.230469 25.230469 21.097656 25.425781 20.929688 25.597656 C 20.757812 25.769531 20.5625 25.898438 20.339844 25.992188 C 20.117188 26.082031 19.886719 26.128906 19.644531 26.128906 C 19.40625 26.128906 19.171875 26.082031 18.949219 25.992188 C 18.726562 25.898438 18.53125 25.769531 18.363281 25.597656 C 18.191406 25.425781 18.0625 25.230469 17.96875 25.007812 C 17.875 24.785156 17.832031 24.554688 17.832031 24.316406 C 17.832031 24.074219 17.875 23.84375 17.96875 23.621094 C 18.0625 23.398438 18.191406 23.203125 18.363281 23.03125 C 18.53125 22.859375 18.726562 22.730469 18.949219 22.636719 C 19.171875 22.546875 19.40625 22.5 19.644531 22.5 C 19.886719 22.5 20.117188 22.546875 20.339844 22.636719 C 20.5625 22.730469 20.757812 22.859375 20.929688 23.03125 C 21.097656 23.203125 21.230469 23.398438 21.320312 23.621094 C 21.414062 23.84375 21.460938 24.074219 21.460938 24.316406 Z M 21.460938 24.316406 " fill-opacity="1" fill-rule="nonzero"/></g><g clip-path="url(#1da5df3b29)"><path fill="#dafaf8" d="M 18.628906 24.316406 C 18.628906 24.554688 18.582031 24.785156 18.492188 25.007812 C 18.398438 25.230469 18.269531 25.425781 18.097656 25.597656 C 17.925781 25.769531 17.730469 25.898438 17.507812 25.992188 C 17.285156 26.082031 17.054688 26.128906 16.816406 26.128906 C 16.574219 26.128906 16.34375 26.082031 16.121094 25.992188 C 15.898438 25.898438 15.703125 25.769531 15.53125 25.597656 C 15.359375 25.425781 15.230469 25.230469 15.136719 25.007812 C 15.046875 24.785156 15 24.554688 15 24.316406 C 15 24.074219 15.046875 23.84375 15.136719 23.621094 C 15.230469 23.398438 15.359375 23.203125 15.53125 23.03125 C 15.703125 22.859375 15.898438 22.730469 16.121094 22.636719 C 16.34375 22.546875 16.574219 22.5 16.816406 22.5 C 17.054688 22.5 17.285156 22.546875 17.507812 22.636719 C 17.730469 22.730469 17.925781 22.859375 18.097656 23.03125 C 18.269531 23.203125 18.398438 23.398438 18.492188 23.621094 C 18.582031 23.84375 18.628906 24.074219 18.628906 24.316406 Z M 18.628906 24.316406 " fill-opacity="1" fill-rule="nonzero"/></g><g clip-path="url(#af2043181a)"><path fill="#dafaf8" d="M 15 24.605469 C 15 24.84375 14.953125 25.078125 14.863281 25.300781 C 14.769531 25.523438 14.640625 25.71875 14.46875 25.886719 C 14.296875 26.058594 14.101562 26.1875 13.878906 26.28125 C 13.65625 26.375 13.425781 26.417969 13.183594 26.417969 C 12.945312 26.417969 12.714844 26.375 12.492188 26.28125 C 12.269531 26.1875 12.074219 26.058594 11.902344 25.886719 C 11.730469 25.71875 11.601562 25.523438 11.507812 25.300781 C 11.417969 25.078125 11.371094 24.84375 11.371094 24.605469 C 11.371094 24.363281 11.417969 24.132812 11.507812 23.910156 C 11.601562 23.6875 11.730469 23.492188 11.902344 23.320312 C 12.074219 23.152344 12.269531 23.019531 12.492188 22.929688 C 12.714844 22.835938 12.945312 22.789062 13.183594 22.789062 C 13.425781 22.789062 13.65625 22.835938 13.878906 22.929688 C 14.101562 23.019531 14.296875 23.152344 14.46875 23.320312 C 14.640625 23.492188 14.769531 23.6875 14.863281 23.910156 C 14.953125 24.132812 15 24.363281 15 24.605469 Z M 15 24.605469 " fill-opacity="1" fill-rule="nonzero"/></g><g clip-path="url(#38e39c7cf2)"><path fill="#dafaf8" d="M 11.226562 24.53125 C 11.226562 24.867188 11.160156 25.191406 11.03125 25.503906 C 10.902344 25.816406 10.71875 26.089844 10.480469 26.328125 C 10.242188 26.566406 9.96875 26.75 9.65625 26.878906 C 9.347656 27.007812 9.023438 27.074219 8.683594 27.074219 C 8.347656 27.074219 8.023438 27.007812 7.714844 26.878906 C 7.402344 26.75 7.128906 26.566406 6.890625 26.328125 C 6.652344 26.089844 6.46875 25.816406 6.339844 25.503906 C 6.210938 25.191406 6.144531 24.867188 6.144531 24.53125 C 6.144531 24.195312 6.210938 23.871094 6.339844 23.558594 C 6.46875 23.25 6.652344 22.972656 6.890625 22.734375 C 7.128906 22.496094 7.402344 22.3125 7.714844 22.183594 C 8.023438 22.054688 8.347656 21.992188 8.683594 21.992188 C 9.023438 21.992188 9.347656 22.054688 9.65625 22.183594 C 9.96875 22.3125 10.242188 22.496094 10.480469 22.734375 C 10.71875 22.972656 10.902344 23.25 11.03125 23.558594 C 11.160156 23.871094 11.226562 24.195312 11.226562 24.53125 Z M 11.226562 24.53125 " fill-opacity="1" fill-rule="nonzero"/></g><g clip-path="url(#6c786972d3)"><path fill="#dafaf8" d="M 7.960938 23.515625 C 7.960938 23.757812 7.914062 23.988281 7.820312 24.210938 C 7.730469 24.433594 7.597656 24.628906 7.429688 24.800781 C 7.257812 24.96875 7.0625 25.101562 6.839844 25.191406 C 6.617188 25.285156 6.386719 25.332031 6.144531 25.332031 C 5.90625 25.332031 5.671875 25.285156 5.449219 25.191406 C 5.226562 25.101562 5.03125 24.96875 4.863281 24.800781 C 4.691406 24.628906 4.5625 24.433594 4.46875 24.210938 C 4.375 23.988281 4.332031 23.757812 4.332031 23.515625 C 4.332031 23.277344 4.375 23.042969 4.46875 22.820312 C 4.5625 22.597656 4.691406 22.402344 4.863281 22.234375 C 5.03125 22.0625 5.226562 21.933594 5.449219 21.839844 C 5.671875 21.746094 5.90625 21.703125 6.144531 21.703125 C 6.386719 21.703125 6.617188 21.746094 6.839844 21.839844 C 7.0625 21.933594 7.257812 22.0625 7.429688 22.234375 C 7.597656 22.402344 7.730469 22.597656 7.820312 22.820312 C 7.914062 23.042969 7.960938 23.277344 7.960938 23.515625 Z M 7.960938 23.515625 " fill-opacity="1" fill-rule="nonzero"/></g><g clip-path="url(#bd4e98e242)"><path fill="#dafaf8" d="M 7.597656 20.394531 C 7.597656 20.636719 7.550781 20.867188 7.457031 21.089844 C 7.367188 21.3125 7.234375 21.507812 7.066406 21.679688 C 6.894531 21.847656 6.699219 21.980469 6.476562 22.070312 C 6.253906 22.164062 6.023438 22.210938 5.78125 22.210938 C 5.542969 22.210938 5.308594 22.164062 5.085938 22.070312 C 4.867188 21.980469 4.667969 21.847656 4.5 21.679688 C 4.328125 21.507812 4.199219 21.3125 4.105469 21.089844 C 4.015625 20.867188 3.96875 20.636719 3.96875 20.394531 C 3.96875 20.15625 4.015625 19.921875 4.105469 19.699219 C 4.199219 19.476562 4.328125 19.28125 4.5 19.113281 C 4.667969 18.941406 4.867188 18.8125 5.085938 18.71875 C 5.308594 18.625 5.542969 18.582031 5.78125 18.582031 C 6.023438 18.582031 6.253906 18.625 6.476562 18.71875 C 6.699219 18.8125 6.894531 18.941406 7.066406 19.113281 C 7.234375 19.28125 7.367188 19.476562 7.457031 19.699219 C 7.550781 19.921875 7.597656 20.15625 7.597656 20.394531 Z M 7.597656 20.394531 " fill-opacity="1" fill-rule="nonzero"/></g><g clip-path="url(#5d162aae21)"><path fill="#dafaf8" d="M 7.597656 17.492188 C 7.597656 17.734375 7.550781 17.964844 7.457031 18.1875 C 7.367188 18.410156 7.234375 18.605469 7.066406 18.773438 C 6.894531 18.945312 6.699219 19.078125 6.476562 19.167969 C 6.253906 19.261719 6.023438 19.304688 5.78125 19.304688 C 5.542969 19.304688 5.308594 19.261719 5.085938 19.167969 C 4.867188 19.078125 4.667969 18.945312 4.5 18.773438 C 4.328125 18.605469 4.199219 18.410156 4.105469 18.1875 C 4.015625 17.964844 3.96875 17.734375 3.96875 17.492188 C 3.96875 17.25 4.015625 17.019531 4.105469 16.796875 C 4.199219 16.574219 4.328125 16.378906 4.5 16.207031 C 4.667969 16.039062 4.867188 15.90625 5.085938 15.816406 C 5.308594 15.722656 5.542969 15.675781 5.78125 15.675781 C 6.023438 15.675781 6.253906 15.722656 6.476562 15.816406 C 6.699219 15.90625 6.894531 16.039062 7.066406 16.207031 C 7.234375 16.378906 7.367188 16.574219 7.457031 16.796875 C 7.550781 17.019531 7.597656 17.25 7.597656 17.492188 Z M 7.597656 17.492188 " fill-opacity="1" fill-rule="nonzero"/></g><g clip-path="url(#c2c49cb1d5)"><path fill="#dafaf8" d="M 7.597656 15.605469 C 7.597656 15.84375 7.550781 16.078125 7.457031 16.300781 C 7.367188 16.523438 7.234375 16.71875 7.066406 16.886719 C 6.894531 17.058594 6.699219 17.1875 6.476562 17.28125 C 6.253906 17.375 6.023438 17.417969 5.78125 17.417969 C 5.542969 17.417969 5.308594 17.375 5.085938 17.28125 C 4.867188 17.1875 4.667969 17.058594 4.5 16.886719 C 4.328125 16.71875 4.199219 16.523438 4.105469 16.300781 C 4.015625 16.078125 3.96875 15.84375 3.96875 15.605469 C 3.96875 15.363281 4.015625 15.132812 4.105469 14.910156 C 4.199219 14.6875 4.328125 14.492188 4.5 14.320312 C 4.667969 14.152344 4.867188 14.019531 5.085938 13.929688 C 5.308594 13.835938 5.542969 13.789062 5.78125 13.789062 C 6.023438 13.789062 6.253906 13.835938 6.476562 13.929688 C 6.699219 14.019531 6.894531 14.152344 7.066406 14.320312 C 7.234375 14.492188 7.367188 14.6875 7.457031 14.910156 C 7.550781 15.132812 7.597656 15.363281 7.597656 15.605469 Z M 7.597656 15.605469 " fill-opacity="1" fill-rule="nonzero"/></g><g clip-path="url(#7796872b0f)"><path fill="#dafaf8" d="M 7.597656 12.808594 C 7.597656 13.050781 7.550781 13.28125 7.457031 13.503906 C 7.367188 13.726562 7.234375 13.921875 7.066406 14.09375 C 6.894531 14.265625 6.699219 14.394531 6.476562 14.488281 C 6.253906 14.578125 6.023438 14.625 5.78125 14.625 C 5.542969 14.625 5.308594 14.578125 5.085938 14.488281 C 4.867188 14.394531 4.667969 14.265625 4.5 14.09375 C 4.328125 13.921875 4.199219 13.726562 4.105469 13.503906 C 4.015625 13.28125 3.96875 13.050781 3.96875 12.808594 C 3.96875 12.570312 4.015625 12.339844 4.105469 12.117188 C 4.199219 11.894531 4.328125 11.699219 4.5 11.527344 C 4.667969 11.355469 4.867188 11.226562 5.085938 11.132812 C 5.308594 11.042969 5.542969 10.996094 5.78125 10.996094 C 6.023438 10.996094 6.253906 11.042969 6.476562 11.132812 C 6.699219 11.226562 6.894531 11.355469 7.066406 11.527344 C 7.234375 11.699219 7.367188 11.894531 7.457031 12.117188 C 7.550781 12.339844 7.597656 12.570312 7.597656 12.808594 Z M 7.597656 12.808594 " fill-opacity="1" fill-rule="nonzero"/></g><g clip-path="url(#2927293156)"><path fill="#dafaf8" d="M 7.597656 10.015625 C 7.597656 10.257812 7.550781 10.488281 7.457031 10.710938 C 7.367188 10.933594 7.234375 11.128906 7.066406 11.300781 C 6.894531 11.46875 6.699219 11.601562 6.476562 11.691406 C 6.253906 11.785156 6.023438 11.832031 5.78125 11.832031 C 5.542969 11.832031 5.308594 11.785156 5.085938 11.691406 C 4.867188 11.601562 4.667969 11.46875 4.5 11.300781 C 4.328125 11.128906 4.199219 10.933594 4.105469 10.710938 C 4.015625 10.488281 3.96875 10.257812 3.96875 10.015625 C 3.96875 9.777344 4.015625 9.542969 4.105469 9.320312 C 4.199219 9.097656 4.328125 8.902344 4.5 8.734375 C 4.667969 8.5625 4.867188 8.433594 5.085938 8.339844 C 5.308594 8.246094 5.542969 8.203125 5.78125 8.203125 C 6.023438 8.203125 6.253906 8.246094 6.476562 8.339844 C 6.699219 8.433594 6.894531 8.5625 7.066406 8.734375 C 7.234375 8.902344 7.367188 9.097656 7.457031 9.320312 C 7.550781 9.542969 7.597656 9.777344 7.597656 10.015625 Z M 7.597656 10.015625 " fill-opacity="1" fill-rule="nonzero"/></g><g clip-path="url(#ffb8c1e064)"><path fill="#dafaf8" d="M 7.597656 7.949219 C 7.597656 8.1875 7.550781 8.417969 7.457031 8.640625 C 7.367188 8.863281 7.234375 9.058594 7.066406 9.230469 C 6.894531 9.402344 6.699219 9.53125 6.476562 9.625 C 6.253906 9.714844 6.023438 9.761719 5.78125 9.761719 C 5.542969 9.761719 5.308594 9.714844 5.085938 9.625 C 4.867188 9.53125 4.667969 9.402344 4.5 9.230469 C 4.328125 9.058594 4.199219 8.863281 4.105469 8.640625 C 4.015625 8.417969 3.96875 8.1875 3.96875 7.949219 C 3.96875 7.707031 4.015625 7.476562 4.105469 7.253906 C 4.199219 7.03125 4.328125 6.835938 4.5 6.664062 C 4.667969 6.496094 4.867188 6.363281 5.085938 6.269531 C 5.308594 6.179688 5.542969 6.132812 5.78125 6.132812 C 6.023438 6.132812 6.253906 6.179688 6.476562 6.269531 C 6.699219 6.363281 6.894531 6.496094 7.066406 6.664062 C 7.234375 6.835938 7.367188 7.03125 7.457031 7.253906 C 7.550781 7.476562 7.597656 7.707031 7.597656 7.949219 Z M 7.597656 7.949219 " fill-opacity="1" fill-rule="nonzero"/></g><g clip-path="url(#016ef54a92)"><path fill="#dafaf8" d="M 8.539062 5.515625 C 8.539062 5.757812 8.496094 5.988281 8.402344 6.210938 C 8.308594 6.433594 8.179688 6.628906 8.007812 6.800781 C 7.839844 6.96875 7.640625 7.101562 7.421875 7.191406 C 7.199219 7.285156 6.964844 7.332031 6.726562 7.332031 C 6.484375 7.332031 6.253906 7.285156 6.03125 7.191406 C 5.808594 7.101562 5.613281 6.96875 5.441406 6.800781 C 5.273438 6.628906 5.140625 6.433594 5.050781 6.210938 C 4.957031 5.988281 4.910156 5.757812 4.910156 5.515625 C 4.910156 5.277344 4.957031 5.042969 5.050781 4.820312 C 5.140625 4.597656 5.273438 4.402344 5.441406 4.234375 C 5.613281 4.0625 5.808594 3.933594 6.03125 3.839844 C 6.253906 3.746094 6.484375 3.703125 6.726562 3.703125 C 6.964844 3.703125 7.199219 3.746094 7.421875 3.839844 C 7.640625 3.933594 7.839844 4.0625 8.007812 4.234375 C 8.179688 4.402344 8.308594 4.597656 8.402344 4.820312 C 8.496094 5.042969 8.539062 5.277344 8.539062 5.515625 Z M 8.539062 5.515625 " fill-opacity="1" fill-rule="nonzero"/></g><g clip-path="url(#97341b5562)"><path fill="#dafaf8" d="M 11.371094 4.71875 C 11.371094 4.957031 11.324219 5.191406 11.234375 5.414062 C 11.140625 5.632812 11.007812 5.832031 10.839844 6 C 10.667969 6.171875 10.472656 6.300781 10.25 6.394531 C 10.027344 6.484375 9.796875 6.53125 9.554688 6.53125 C 9.316406 6.53125 9.085938 6.484375 8.863281 6.394531 C 8.640625 6.300781 8.445312 6.171875 8.273438 6 C 8.101562 5.832031 7.972656 5.632812 7.878906 5.414062 C 7.789062 5.191406 7.742188 4.957031 7.742188 4.71875 C 7.742188 4.476562 7.789062 4.246094 7.878906 4.023438 C 7.972656 3.800781 8.101562 3.605469 8.273438 3.433594 C 8.445312 3.265625 8.640625 3.132812 8.863281 3.042969 C 9.085938 2.949219 9.316406 2.902344 9.554688 2.902344 C 9.796875 2.902344 10.027344 2.949219 10.25 3.042969 C 10.472656 3.132812 10.667969 3.265625 10.839844 3.433594 C 11.007812 3.605469 11.140625 3.800781 11.234375 4.023438 C 11.324219 4.246094 11.371094 4.476562 11.371094 4.71875 Z M 11.371094 4.71875 " fill-opacity="1" fill-rule="nonzero"/></g><g clip-path="url(#2d44722cb5)"><path fill="#dafaf8" d="M 13.730469 4.71875 C 13.730469 4.957031 13.683594 5.191406 13.589844 5.414062 C 13.5 5.632812 13.367188 5.832031 13.199219 6 C 13.027344 6.171875 12.832031 6.300781 12.609375 6.394531 C 12.386719 6.484375 12.15625 6.53125 11.914062 6.53125 C 11.675781 6.53125 11.441406 6.484375 11.222656 6.394531 C 11 6.300781 10.800781 6.171875 10.632812 6 C 10.460938 5.832031 10.332031 5.632812 10.238281 5.414062 C 10.148438 5.191406 10.101562 4.957031 10.101562 4.71875 C 10.101562 4.476562 10.148438 4.246094 10.238281 4.023438 C 10.332031 3.800781 10.460938 3.605469 10.632812 3.433594 C 10.800781 3.265625 11 3.132812 11.222656 3.042969 C 11.441406 2.949219 11.675781 2.902344 11.914062 2.902344 C 12.15625 2.902344 12.386719 2.949219 12.609375 3.042969 C 12.832031 3.132812 13.027344 3.265625 13.199219 3.433594 C 13.367188 3.605469 13.5 3.800781 13.589844 4.023438 C 13.683594 4.246094 13.730469 4.476562 13.730469 4.71875 Z M 13.730469 4.71875 " fill-opacity="1" fill-rule="nonzero"/></g><g clip-path="url(#147310e461)"><path fill="#dafaf8" d="M 16.414062 4.71875 C 16.414062 4.957031 16.371094 5.191406 16.277344 5.414062 C 16.183594 5.632812 16.054688 5.832031 15.882812 6 C 15.714844 6.171875 15.515625 6.300781 15.296875 6.394531 C 15.074219 6.484375 14.839844 6.53125 14.601562 6.53125 C 14.359375 6.53125 14.128906 6.484375 13.90625 6.394531 C 13.683594 6.300781 13.488281 6.171875 13.316406 6 C 13.148438 5.832031 13.015625 5.632812 12.925781 5.414062 C 12.832031 5.191406 12.785156 4.957031 12.785156 4.71875 C 12.785156 4.476562 12.832031 4.246094 12.925781 4.023438 C 13.015625 3.800781 13.148438 3.605469 13.316406 3.433594 C 13.488281 3.265625 13.683594 3.132812 13.90625 3.042969 C 14.128906 2.949219 14.359375 2.902344 14.601562 2.902344 C 14.839844 2.902344 15.074219 2.949219 15.296875 3.042969 C 15.515625 3.132812 15.714844 3.265625 15.882812 3.433594 C 16.054688 3.605469 16.183594 3.800781 16.277344 4.023438 C 16.371094 4.246094 16.414062 4.476562 16.414062 4.71875 Z M 16.414062 4.71875 " fill-opacity="1" fill-rule="nonzero"/></g><g clip-path="url(#0b631dc21a)"><path fill="#dafaf8" d="M 19.753906 4.71875 C 19.753906 4.957031 19.707031 5.191406 19.617188 5.414062 C 19.523438 5.632812 19.394531 5.832031 19.222656 6 C 19.050781 6.171875 18.855469 6.300781 18.632812 6.394531 C 18.410156 6.484375 18.179688 6.53125 17.941406 6.53125 C 17.699219 6.53125 17.46875 6.484375 17.246094 6.394531 C 17.023438 6.300781 16.828125 6.171875 16.65625 6 C 16.484375 5.832031 16.355469 5.632812 16.261719 5.414062 C 16.171875 5.191406 16.125 4.957031 16.125 4.71875 C 16.125 4.476562 16.171875 4.246094 16.261719 4.023438 C 16.355469 3.800781 16.484375 3.605469 16.65625 3.433594 C 16.828125 3.265625 17.023438 3.132812 17.246094 3.042969 C 17.46875 2.949219 17.699219 2.902344 17.941406 2.902344 C 18.179688 2.902344 18.410156 2.949219 18.632812 3.042969 C 18.855469 3.132812 19.050781 3.265625 19.222656 3.433594 C 19.394531 3.605469 19.523438 3.800781 19.617188 4.023438 C 19.707031 4.246094 19.753906 4.476562 19.753906 4.71875 Z M 19.753906 4.71875 " fill-opacity="1" fill-rule="nonzero"/></g><g clip-path="url(#743d6de58c)"><path fill="#dafaf8" d="M 23.09375 4.71875 C 23.09375 4.957031 23.046875 5.191406 22.953125 5.414062 C 22.863281 5.632812 22.730469 5.832031 22.5625 6 C 22.390625 6.171875 22.195312 6.300781 21.972656 6.394531 C 21.75 6.484375 21.519531 6.53125 21.277344 6.53125 C 21.039062 6.53125 20.804688 6.484375 20.582031 6.394531 C 20.363281 6.300781 20.164062 6.171875 19.996094 6 C 19.824219 5.832031 19.695312 5.632812 19.601562 5.414062 C 19.507812 5.191406 19.464844 4.957031 19.464844 4.71875 C 19.464844 4.476562 19.507812 4.246094 19.601562 4.023438 C 19.695312 3.800781 19.824219 3.605469 19.996094 3.433594 C 20.164062 3.265625 20.363281 3.132812 20.582031 3.042969 C 20.804688 2.949219 21.039062 2.902344 21.277344 2.902344 C 21.519531 2.902344 21.75 2.949219 21.972656 3.042969 C 22.195312 3.132812 22.390625 3.265625 22.5625 3.433594 C 22.730469 3.605469 22.863281 3.800781 22.953125 4.023438 C 23.046875 4.246094 23.09375 4.476562 23.09375 4.71875 Z M 23.09375 4.71875 " fill-opacity="1" fill-rule="nonzero"/></g><g clip-path="url(#182b2f4adc)"><path fill="#dafaf8" d="M 26.070312 5.515625 C 26.070312 5.757812 26.023438 5.988281 25.929688 6.210938 C 25.839844 6.433594 25.707031 6.628906 25.535156 6.800781 C 25.367188 6.96875 25.171875 7.101562 24.949219 7.191406 C 24.726562 7.285156 24.496094 7.332031 24.253906 7.332031 C 24.011719 7.332031 23.78125 7.285156 23.558594 7.191406 C 23.335938 7.101562 23.140625 6.96875 22.972656 6.800781 C 22.800781 6.628906 22.667969 6.433594 22.578125 6.210938 C 22.484375 5.988281 22.441406 5.757812 22.441406 5.515625 C 22.441406 5.277344 22.484375 5.042969 22.578125 4.820312 C 22.667969 4.597656 22.800781 4.402344 22.972656 4.234375 C 23.140625 4.0625 23.335938 3.933594 23.558594 3.839844 C 23.78125 3.746094 24.011719 3.703125 24.253906 3.703125 C 24.496094 3.703125 24.726562 3.746094 24.949219 3.839844 C 25.171875 3.933594 25.367188 4.0625 25.535156 4.234375 C 25.707031 4.402344 25.839844 4.597656 25.929688 4.820312 C 26.023438 5.042969 26.070312 5.277344 26.070312 5.515625 Z M 26.070312 5.515625 " fill-opacity="1" fill-rule="nonzero"/></g><g clip-path="url(#eba6c38287)"><path fill="#dafaf8" d="M 26.503906 7.222656 C 26.503906 7.460938 26.457031 7.695312 26.367188 7.917969 C 26.273438 8.136719 26.144531 8.335938 25.972656 8.503906 C 25.800781 8.675781 25.605469 8.804688 25.382812 8.898438 C 25.160156 8.992188 24.929688 9.035156 24.691406 9.035156 C 24.449219 9.035156 24.21875 8.992188 23.996094 8.898438 C 23.773438 8.804688 23.578125 8.675781 23.40625 8.503906 C 23.234375 8.335938 23.105469 8.136719 23.011719 7.917969 C 22.921875 7.695312 22.875 7.460938 22.875 7.222656 C 22.875 6.980469 22.921875 6.75 23.011719 6.527344 C 23.105469 6.304688 23.234375 6.109375 23.40625 5.9375 C 23.578125 5.769531 23.773438 5.636719 23.996094 5.546875 C 24.21875 5.453125 24.449219 5.40625 24.691406 5.40625 C 24.929688 5.40625 25.160156 5.453125 25.382812 5.546875 C 25.605469 5.636719 25.800781 5.769531 25.972656 5.9375 C 26.144531 6.109375 26.273438 6.304688 26.367188 6.527344 C 26.457031 6.75 26.503906 6.980469 26.503906 7.222656 Z M 26.503906 7.222656 " fill-opacity="1" fill-rule="nonzero"/></g><g clip-path="url(#55303f30a6)"><path fill="#dafaf8" d="M 20.136719 6.042969 C 20.136719 6.476562 20.050781 6.890625 19.886719 7.292969 C 19.722656 7.691406 19.484375 8.046875 19.179688 8.351562 C 18.871094 8.65625 18.519531 8.894531 18.117188 9.058594 C 17.71875 9.226562 17.300781 9.308594 16.867188 9.308594 C 16.4375 9.308594 16.019531 9.226562 15.617188 9.058594 C 15.21875 8.894531 14.867188 8.65625 14.558594 8.351562 C 14.253906 8.046875 14.015625 7.691406 13.851562 7.292969 C 13.6875 6.890625 13.601562 6.476562 13.601562 6.042969 C 13.601562 5.609375 13.6875 5.191406 13.851562 4.792969 C 14.015625 4.390625 14.253906 4.039062 14.558594 3.734375 C 14.867188 3.425781 15.21875 3.191406 15.617188 3.023438 C 16.019531 2.859375 16.4375 2.777344 16.867188 2.777344 C 17.300781 2.777344 17.71875 2.859375 18.117188 3.023438 C 18.519531 3.191406 18.871094 3.425781 19.179688 3.734375 C 19.484375 4.039062 19.722656 4.390625 19.886719 4.792969 C 20.050781 5.191406 20.136719 5.609375 20.136719 6.042969 Z M 20.136719 6.042969 " fill-opacity="1" fill-rule="nonzero"/></g><g clip-path="url(#e968df9f5d)"><path fill="#dafaf8" d="M 23.347656 7.875 C 23.347656 8.308594 23.265625 8.726562 23.097656 9.125 C 22.933594 9.523438 22.695312 9.878906 22.390625 10.183594 C 22.082031 10.492188 21.730469 10.726562 21.332031 10.890625 C 20.929688 11.058594 20.515625 11.140625 20.082031 11.140625 C 19.648438 11.140625 19.230469 11.058594 18.832031 10.890625 C 18.429688 10.726562 18.078125 10.492188 17.769531 10.183594 C 17.464844 9.878906 17.230469 9.523438 17.0625 9.125 C 16.898438 8.726562 16.816406 8.308594 16.816406 7.875 C 16.816406 7.441406 16.898438 7.023438 17.0625 6.625 C 17.230469 6.226562 17.464844 5.871094 17.769531 5.566406 C 18.078125 5.257812 18.429688 5.023438 18.832031 4.859375 C 19.230469 4.691406 19.648438 4.609375 20.082031 4.609375 C 20.515625 4.609375 20.929688 4.691406 21.332031 4.859375 C 21.730469 5.023438 22.082031 5.257812 22.390625 5.566406 C 22.695312 5.871094 22.933594 6.226562 23.097656 6.625 C 23.265625 7.023438 23.347656 7.441406 23.347656 7.875 Z M 23.347656 7.875 " fill-opacity="1" fill-rule="nonzero"/></g><g clip-path="url(#c23aa6663a)"><path fill="#dafaf8" d="M 18.910156 6.949219 C 18.910156 7.382812 18.828125 7.800781 18.660156 8.199219 C 18.496094 8.601562 18.261719 8.953125 17.953125 9.257812 C 17.648438 9.566406 17.292969 9.800781 16.894531 9.96875 C 16.492188 10.132812 16.078125 10.214844 15.644531 10.214844 C 15.210938 10.214844 14.792969 10.132812 14.394531 9.96875 C 13.992188 9.800781 13.640625 9.566406 13.335938 9.257812 C 13.027344 8.953125 12.792969 8.601562 12.625 8.199219 C 12.460938 7.800781 12.378906 7.382812 12.378906 6.949219 C 12.378906 6.515625 12.460938 6.101562 12.625 5.699219 C 12.792969 5.300781 13.027344 4.945312 13.335938 4.640625 C 13.640625 4.332031 13.992188 4.097656 14.394531 3.933594 C 14.792969 3.765625 15.210938 3.683594 15.644531 3.683594 C 16.078125 3.683594 16.492188 3.765625 16.894531 3.933594 C 17.292969 4.097656 17.648438 4.332031 17.953125 4.640625 C 18.261719 4.945312 18.496094 5.300781 18.660156 5.699219 C 18.828125 6.101562 18.910156 6.515625 18.910156 6.949219 Z M 18.910156 6.949219 " fill-opacity="1" fill-rule="nonzero"/></g><g clip-path="url(#df304efdb0)"><path fill="#dafaf8" d="M 16.332031 24.96875 C 16.332031 25.402344 16.25 25.816406 16.085938 26.21875 C 15.917969 26.617188 15.683594 26.972656 15.378906 27.277344 C 15.070312 27.582031 14.71875 27.820312 14.316406 27.984375 C 13.917969 28.152344 13.5 28.234375 13.066406 28.234375 C 12.632812 28.234375 12.21875 28.152344 11.816406 27.984375 C 11.417969 27.820312 11.0625 27.582031 10.757812 27.277344 C 10.453125 26.972656 10.214844 26.617188 10.050781 26.21875 C 9.882812 25.816406 9.800781 25.402344 9.800781 24.96875 C 9.800781 24.535156 9.882812 24.117188 10.050781 23.71875 C 10.214844 23.316406 10.453125 22.964844 10.757812 22.660156 C 11.0625 22.351562 11.417969 22.117188 11.816406 21.949219 C 12.21875 21.785156 12.632812 21.703125 13.066406 21.703125 C 13.5 21.703125 13.917969 21.785156 14.316406 21.949219 C 14.71875 22.117188 15.070312 22.351562 15.378906 22.660156 C 15.683594 22.964844 15.917969 23.316406 16.085938 23.71875 C 16.25 24.117188 16.332031 24.535156 16.332031 24.96875 Z M 16.332031 24.96875 " fill-opacity="1" fill-rule="nonzero"/></g></svg>