<svg width="250" height="245" viewBox="0 0 250 245" fill="none" xmlns="http://www.w3.org/2000/svg">
<path d="M0 7.91873H8.44279V51.9117H16.5185V7.91873H24.9613V0.586569H0V7.91873Z" fill="#6EC6CA"/>
<path fill-rule="evenodd" clip-rule="evenodd" d="M38.3524 39.5936C38.3524 47.8057 42.6839 52.4982 50.6128 52.4982C58.5417 52.4982 62.8732 47.8057 62.8732 39.5936V12.9046C62.8732 4.69258 58.5417 0 50.6128 0C42.6839 0 38.3524 4.69258 38.3524 12.9046V39.5936ZM46.4281 12.3913C46.4281 8.72526 48.0433 7.33215 50.6128 7.33215C53.1824 7.33215 54.7975 8.72526 54.7975 12.3913V40.1069C54.7975 43.773 53.1824 45.1661 50.6128 45.1661C48.0433 45.1661 46.4281 43.773 46.4281 40.1069V12.3913Z" fill="#6EC6CA"/>
<path fill-rule="evenodd" clip-rule="evenodd" d="M2.20247 147.794H14.9768C23.0525 147.794 27.0169 143.321 27.0169 135.109V109.153C27.0169 100.941 23.0525 96.4686 14.9768 96.4686H2.20247V147.794ZM14.8299 103.801C17.3995 103.801 18.9412 105.121 18.9412 108.787V135.476C18.9412 139.142 17.3995 140.462 14.8299 140.462H10.2782V103.801H14.8299Z" fill="#6EC6CA"/>
<path fill-rule="evenodd" clip-rule="evenodd" d="M41.8655 135.476C41.8655 143.688 46.197 148.38 54.1259 148.38C62.0547 148.38 66.3863 143.688 66.3863 135.476V108.787C66.3863 100.575 62.0547 95.882 54.1259 95.882C46.197 95.882 41.8655 100.575 41.8655 108.787V135.476ZM49.9412 108.273C49.9412 104.607 51.5563 103.214 54.1259 103.214C56.6954 103.214 58.3105 104.607 58.3105 108.273V135.989C58.3105 139.655 56.6954 141.048 54.1259 141.048C51.5563 141.048 49.9412 139.655 49.9412 135.989V108.273Z" fill="#6EC6CA"/>
<path d="M23.5664 243.676H2.20247V192.351H10.2782V236.344H23.5664V243.676Z" fill="#6EC6CA"/>
<path d="M88.1589 243.676H80.0832V192.351H88.1589V243.676Z" fill="#6EC6CA"/>
<path d="M154.755 220.697C150.514 216.822 145.895 212.602 145.895 204.669C145.895 196.457 149.933 191.764 157.788 191.764C165.644 191.764 169.682 196.457 169.682 204.669V206.648H162.046V204.155C162.046 200.489 160.578 199.096 158.009 199.096C155.439 199.096 153.971 200.489 153.971 204.155C153.971 209.002 157.297 212.041 160.895 215.329C165.136 219.204 169.755 223.425 169.755 231.358C169.755 239.57 165.644 244.262 157.715 244.262C149.786 244.262 145.675 239.57 145.675 231.358V227.838H153.31V231.871C153.31 235.537 154.925 236.857 157.495 236.857C160.064 236.857 161.679 235.537 161.679 231.871C161.679 227.024 158.354 223.985 154.755 220.697Z" fill="#6EC6CA"/>
<path d="M233.481 199.683H225.039V192.351H250V199.683H241.557V243.676H233.481V199.683Z" fill="#6EC6CA"/>
<path d="M247.093 11.6012C249.85 14.3545 249.85 18.8184 247.093 21.5716L169.814 98.7522C167.057 101.505 162.588 101.505 159.831 98.7522L136.647 75.598C133.89 72.8448 133.89 68.3809 136.647 65.6276C139.404 62.8743 143.873 62.8743 146.63 65.6276L164.822 83.7965L237.11 11.6012C239.867 8.84795 244.337 8.84795 247.093 11.6012Z" fill="#6EC6CA"/>
<path d="M104.789 18.3751C106.364 16.8024 108.5 15.9189 110.727 15.9189H195.734C199.633 15.9189 202.793 12.7624 202.793 8.86874C202.793 4.97505 199.633 1.81859 195.734 1.81859H110.727C104.755 1.81859 99.0285 4.18767 94.8061 8.40467C90.5837 12.6217 88.2116 18.3411 88.2116 24.3049V132.358C88.2116 138.321 90.5837 144.041 94.8061 148.258C99.0285 152.475 104.755 154.844 110.727 154.844H218.918C224.889 154.844 230.616 152.475 234.839 148.258C239.061 144.041 241.433 138.321 241.433 132.358V78.3312C241.433 74.4376 238.273 71.2811 234.374 71.2811C230.475 71.2811 227.315 74.4376 227.315 78.3312V132.358C227.315 134.582 226.43 136.715 224.855 138.287C223.281 139.86 221.145 140.744 218.918 140.744H110.727C108.5 140.744 106.364 139.86 104.789 138.287C103.215 136.715 102.33 134.582 102.33 132.358V24.3049C102.33 22.0808 103.215 19.9478 104.789 18.3751Z" fill="#6EC6CA"/>
</svg>
