<svg width="233" height="52" viewBox="0 0 233 52" fill="none" xmlns="http://www.w3.org/2000/svg">
<path d="M0 7.84357H8.35196V51.419H16.3408V7.84357H24.6928V0.581002H0V7.84357Z" fill="#6EC6CA"/>
<path d="M36.411 12.2737C36.411 8.64245 38.0088 7.26257 40.5507 7.26257C43.0926 7.26257 44.6904 8.64245 44.6904 12.2737V39.7263C44.6904 43.3575 43.0926 44.7374 40.5507 44.7374C38.0088 44.7374 36.411 43.3575 36.411 39.7263V12.2737ZM28.4222 39.2179C28.4222 47.352 32.7071 52 40.5507 52C48.3943 52 52.6792 47.352 52.6792 39.2179V12.7821C52.6792 4.64804 48.3943 0 40.5507 0C32.7071 0 28.4222 4.64804 28.4222 12.7821V39.2179Z" fill="#6EC6CA"/>
<path d="M70.6002 51.419H83.237C91.2259 51.419 95.1477 46.9888 95.1477 38.8547V13.1453C95.1477 5.01117 91.2259 0.581002 83.237 0.581002H70.6002V51.419ZM83.0918 7.84357C85.6337 7.84357 87.1588 9.15084 87.1588 12.7821V39.2179C87.1588 42.8492 85.6337 44.1564 83.0918 44.1564H78.589V7.84357H83.0918Z" fill="#6EC6CA"/>
<path d="M108.308 12.2737C108.308 8.64245 109.905 7.26257 112.447 7.26257C114.989 7.26257 116.587 8.64245 116.587 12.2737V39.7263C116.587 43.3575 114.989 44.7374 112.447 44.7374C109.905 44.7374 108.308 43.3575 108.308 39.7263V12.2737ZM100.319 39.2179C100.319 47.352 104.604 52 112.447 52C120.291 52 124.576 47.352 124.576 39.2179V12.7821C124.576 4.64804 120.291 0 112.447 0C104.604 0 100.319 4.64804 100.319 12.7821V39.2179Z" fill="#6EC6CA"/>
<path d="M142.497 51.419H163.631V44.1564H150.486V0.581002H142.497V51.419Z" fill="#6EC6CA"/>
<path d="M167.975 51.419H175.964V0.581002H167.975V51.419Z" fill="#6EC6CA"/>
<path d="M181.515 12.7821C181.515 27.3073 197.13 29.2682 197.13 39.7263C197.13 43.3575 195.532 44.6648 192.99 44.6648C190.448 44.6648 188.85 43.3575 188.85 39.7263V35.7318H181.297V39.2179C181.297 47.352 185.364 52 193.208 52C201.051 52 205.118 47.352 205.118 39.2179C205.118 24.6927 189.504 22.7318 189.504 12.2737C189.504 8.64245 190.956 7.26257 193.498 7.26257C196.04 7.26257 197.493 8.64245 197.493 12.2737V14.743H205.046V12.7821C205.046 4.64804 201.051 0 193.28 0C185.509 0 181.515 4.64804 181.515 12.7821Z" fill="#6EC6CA"/>
<path d="M208.243 7.84357H216.595V51.419H224.584V7.84357H232.936V0.581002H208.243V7.84357Z" fill="#6EC6CA"/>
</svg>
